<svg xmlns="http://www.w3.org/2000/svg" viewBox="0 0 48 48" fill="none">
  <rect width="48" height="48" rx="12" fill="#2A060B"/>
  <rect x="2.5" y="2.5" width="43" height="43" rx="9.5" stroke="#C59B27" stroke-width="1.5" stroke-opacity="0.8"/>
  <!-- Agarbatti Stick & Incense Flame/Smoke -->
  <path d="M24 38V22" stroke="#E4B556" stroke-width="2.5" stroke-linecap="round"/>
  <circle cx="24" cy="21" r="2" fill="#FF7D1A"/>
  <!-- Stylized Lotus / Fragrance Flame -->
  <path d="M24 10C24 10 20 15 20 19C20 21.2 21.8 23 24 23C26.2 23 28 21.2 28 19C28 15 24 10 24 10Z" fill="#C59B27"/>
  <path d="M24 13C24 13 22 16 22 18.5C22 19.9 22.9 21 24 21C25.1 21 26 19.9 26 18.5C26 16 24 13 24 13Z" fill="#FAF3DC"/>
</svg>
